<svg xmlns="http://www.w3.org/2000/svg" xmlns:xlink="http://www.w3.org/1999/xlink" width="378" zoomAndPan="magnify" viewBox="0 0 283.5 198.749995" height="265" preserveAspectRatio="xMidYMid meet" version="1.0"><defs><filter x="0%" y="0%" width="100%" height="100%" id="157867cba9"><feColorMatrix values="0 0 0 0 1 0 0 0 0 1 0 0 0 0 1 0 0 0 1 0" color-interpolation-filters="sRGB"/></filter><g/><clipPath id="5e9d5b2493"><path d="M 0 0.0507812 L 283 0.0507812 L 283 198.449219 L 0 198.449219 Z M 0 0.0507812 " clip-rule="nonzero"/></clipPath><clipPath id="fdd18ad47c"><path d="M 0 0.0507812 L 283 0.0507812 L 283 198.449219 L 0 198.449219 Z M 0 0.0507812 " clip-rule="nonzero"/></clipPath><clipPath id="ccf2521dd6"><path d="M 0 0.0507812 L 283 0.0507812 L 283 198.449219 L 0 198.449219 Z M 0 0.0507812 " clip-rule="nonzero"/></clipPath><clipPath id="92f8308aee"><path d="M 0 0.0507812 L 283 0.0507812 L 283 198.449219 L 0 198.449219 Z M 0 0.0507812 " clip-rule="nonzero"/></clipPath><clipPath id="f0e2687a93"><path d="M 0 0.0507812 L 283 0.0507812 L 283 198.449219 L 0 198.449219 Z M 0 0.0507812 " clip-rule="nonzero"/></clipPath><linearGradient x1="184.55499" gradientTransform="matrix(0.782313, 0, 0, 0.782539, -7.477605, -2.75135)" y1="3.580041" x2="184.55499" gradientUnits="userSpaceOnUse" y2="257.113677" id="9bedabe77b"><stop stop-opacity="1" stop-color="rgb(90.589905%, 66.668701%, 31.759644%)" offset="0"/><stop stop-opacity="1" stop-color="rgb(90.589905%, 66.668701%, 31.759644%)" offset="0.0625"/><stop stop-opacity="1" stop-color="rgb(90.637207%, 66.784668%, 31.904602%)" offset="0.078125"/><stop stop-opacity="1" stop-color="rgb(90.931702%, 67.498779%, 32.789612%)" offset="0.0820312"/><stop stop-opacity="1" stop-color="rgb(91.178894%, 68.095398%, 33.531189%)" offset="0.0859375"/><stop stop-opacity="1" stop-color="rgb(91.426086%, 68.692017%, 34.27124%)" offset="0.0898438"/><stop stop-opacity="1" stop-color="rgb(91.673279%, 69.288635%, 35.012817%)" offset="0.09375"/><stop stop-opacity="1" stop-color="rgb(91.920471%, 69.885254%, 35.752869%)" offset="0.0976562"/><stop stop-opacity="1" stop-color="rgb(92.167664%, 70.481873%, 36.494446%)" offset="0.101562"/><stop stop-opacity="1" stop-color="rgb(92.41333%, 71.078491%, 37.234497%)" offset="0.105469"/><stop stop-opacity="1" stop-color="rgb(92.660522%, 71.67511%, 37.976074%)" offset="0.109375"/><stop stop-opacity="1" stop-color="rgb(92.907715%, 72.271729%, 38.716125%)" offset="0.113281"/><stop stop-opacity="1" stop-color="rgb(93.154907%, 72.868347%, 39.457703%)" offset="0.117188"/><stop stop-opacity="1" stop-color="rgb(93.400574%, 73.464966%, 40.197754%)" offset="0.121094"/><stop stop-opacity="1" stop-color="rgb(93.647766%, 74.061584%, 40.939331%)" offset="0.125"/><stop stop-opacity="1" stop-color="rgb(93.894958%, 74.658203%, 41.679382%)" offset="0.128906"/><stop stop-opacity="1" stop-color="rgb(94.142151%, 75.254822%, 42.420959%)" offset="0.132812"/><stop stop-opacity="1" stop-color="rgb(94.387817%, 75.85144%, 43.161011%)" offset="0.136719"/><stop stop-opacity="1" stop-color="rgb(94.63501%, 76.448059%, 43.902588%)" offset="0.140625"/><stop stop-opacity="1" stop-color="rgb(94.882202%, 77.044678%, 44.642639%)" offset="0.144531"/><stop stop-opacity="1" stop-color="rgb(95.129395%, 77.641296%, 45.384216%)" offset="0.148438"/><stop stop-opacity="1" stop-color="rgb(95.376587%, 78.237915%, 46.124268%)" offset="0.152344"/><stop stop-opacity="1" stop-color="rgb(95.623779%, 78.834534%, 46.865845%)" offset="0.15625"/><stop stop-opacity="1" stop-color="rgb(95.869446%, 79.431152%, 47.605896%)" offset="0.160156"/><stop stop-opacity="1" stop-color="rgb(96.116638%, 80.027771%, 48.347473%)" offset="0.164062"/><stop stop-opacity="1" stop-color="rgb(96.363831%, 80.62439%, 49.08905%)" offset="0.167969"/><stop stop-opacity="1" stop-color="rgb(96.611023%, 81.221008%, 49.830627%)" offset="0.171875"/><stop stop-opacity="1" stop-color="rgb(96.856689%, 81.817627%, 50.570679%)" offset="0.175781"/><stop stop-opacity="1" stop-color="rgb(97.103882%, 82.414246%, 51.312256%)" offset="0.179688"/><stop stop-opacity="1" stop-color="rgb(97.351074%, 83.010864%, 52.052307%)" offset="0.183594"/><stop stop-opacity="1" stop-color="rgb(97.598267%, 83.607483%, 52.793884%)" offset="0.1875"/><stop stop-opacity="1" stop-color="rgb(97.845459%, 84.204102%, 53.533936%)" offset="0.191406"/><stop stop-opacity="1" stop-color="rgb(98.092651%, 84.80072%, 54.275513%)" offset="0.195312"/><stop stop-opacity="1" stop-color="rgb(98.338318%, 85.395813%, 55.015564%)" offset="0.199219"/><stop stop-opacity="1" stop-color="rgb(98.58551%, 85.992432%, 55.757141%)" offset="0.203125"/><stop stop-opacity="1" stop-color="rgb(98.832703%, 86.58905%, 56.497192%)" offset="0.207031"/><stop stop-opacity="1" stop-color="rgb(99.079895%, 87.185669%, 57.23877%)" offset="0.210938"/><stop stop-opacity="1" stop-color="rgb(99.325562%, 87.782288%, 57.978821%)" offset="0.214844"/><stop stop-opacity="1" stop-color="rgb(99.572754%, 88.378906%, 58.720398%)" offset="0.21875"/><stop stop-opacity="1" stop-color="rgb(99.624634%, 88.699341%, 59.181213%)" offset="0.222656"/><stop stop-opacity="1" stop-color="rgb(99.67804%, 89.019775%, 59.643555%)" offset="0.226562"/><stop stop-opacity="1" stop-color="rgb(98.504639%, 87.599182%, 58.346558%)" offset="0.230469"/><stop stop-opacity="1" stop-color="rgb(97.332764%, 86.180115%, 57.051086%)" offset="0.234375"/><stop stop-opacity="1" stop-color="rgb(96.159363%, 84.759521%, 55.754089%)" offset="0.238281"/><stop stop-opacity="1" stop-color="rgb(94.985962%, 83.340454%, 54.458618%)" offset="0.242188"/><stop stop-opacity="1" stop-color="rgb(93.812561%, 81.919861%, 53.161621%)" offset="0.246094"/><stop stop-opacity="1" stop-color="rgb(92.640686%, 80.500793%, 51.86615%)" offset="0.25"/><stop stop-opacity="1" stop-color="rgb(91.467285%, 79.0802%, 50.569153%)" offset="0.253906"/><stop stop-opacity="1" stop-color="rgb(90.293884%, 77.661133%, 49.273682%)" offset="0.257812"/><stop stop-opacity="1" stop-color="rgb(89.120483%, 76.24054%, 47.976685%)" offset="0.261719"/><stop stop-opacity="1" stop-color="rgb(87.948608%, 74.821472%, 46.681213%)" offset="0.265625"/><stop stop-opacity="1" stop-color="rgb(86.775208%, 73.400879%, 45.384216%)" offset="0.269531"/><stop stop-opacity="1" stop-color="rgb(85.601807%, 71.981812%, 44.088745%)" offset="0.273438"/><stop stop-opacity="1" stop-color="rgb(84.428406%, 70.561218%, 42.791748%)" offset="0.277344"/><stop stop-opacity="1" stop-color="rgb(83.256531%, 69.142151%, 41.496277%)" offset="0.28125"/><stop stop-opacity="1" stop-color="rgb(82.08313%, 67.721558%, 40.19928%)" offset="0.285156"/><stop stop-opacity="1" stop-color="rgb(80.911255%, 66.30249%, 38.903809%)" offset="0.289062"/><stop stop-opacity="1" stop-color="rgb(79.737854%, 64.881897%, 37.606812%)" offset="0.292969"/><stop stop-opacity="1" stop-color="rgb(78.564453%, 63.46283%, 36.31134%)" offset="0.296875"/><stop stop-opacity="1" stop-color="rgb(77.391052%, 62.042236%, 35.014343%)" offset="0.300781"/><stop stop-opacity="1" stop-color="rgb(76.219177%, 60.623169%, 33.718872%)" offset="0.304687"/><stop stop-opacity="1" stop-color="rgb(75.045776%, 59.202576%, 32.421875%)" offset="0.308594"/><stop stop-opacity="1" stop-color="rgb(73.872375%, 57.783508%, 31.126404%)" offset="0.3125"/><stop stop-opacity="1" stop-color="rgb(72.698975%, 56.362915%, 29.829407%)" offset="0.316406"/><stop stop-opacity="1" stop-color="rgb(71.5271%, 54.943848%, 28.533936%)" offset="0.320312"/><stop stop-opacity="1" stop-color="rgb(70.353699%, 53.523254%, 27.236938%)" offset="0.324219"/><stop stop-opacity="1" stop-color="rgb(69.180298%, 52.104187%, 25.941467%)" offset="0.328125"/><stop stop-opacity="1" stop-color="rgb(68.006897%, 50.683594%, 24.64447%)" offset="0.332031"/><stop stop-opacity="1" stop-color="rgb(66.835022%, 49.264526%, 23.348999%)" offset="0.335937"/><stop stop-opacity="1" stop-color="rgb(65.661621%, 47.843933%, 22.052002%)" offset="0.339844"/><stop stop-opacity="1" stop-color="rgb(64.489746%, 46.424866%, 20.756531%)" offset="0.34375"/><stop stop-opacity="1" stop-color="rgb(63.316345%, 45.004272%, 19.459534%)" offset="0.347656"/><stop stop-opacity="1" stop-color="rgb(62.142944%, 43.585205%, 18.164062%)" offset="0.351562"/><stop stop-opacity="1" stop-color="rgb(60.969543%, 42.164612%, 16.867065%)" offset="0.355469"/><stop stop-opacity="1" stop-color="rgb(59.797668%, 40.745544%, 15.571594%)" offset="0.359375"/><stop stop-opacity="1" stop-color="rgb(58.624268%, 39.324951%, 14.274597%)" offset="0.363281"/><stop stop-opacity="1" stop-color="rgb(57.450867%, 37.905884%, 12.979126%)" offset="0.367187"/><stop stop-opacity="1" stop-color="rgb(56.442261%, 36.662292%, 11.827087%)" offset="0.371094"/><stop stop-opacity="1" stop-color="rgb(55.433655%, 35.418701%, 10.676575%)" offset="0.375"/><stop stop-opacity="1" stop-color="rgb(56.359863%, 36.24115%, 11.231995%)" offset="0.378906"/><stop stop-opacity="1" stop-color="rgb(57.286072%, 37.065125%, 11.787415%)" offset="0.382812"/><stop stop-opacity="1" stop-color="rgb(58.21228%, 37.887573%, 12.342834%)" offset="0.386719"/><stop stop-opacity="1" stop-color="rgb(59.138489%, 38.711548%, 12.898254%)" offset="0.390625"/><stop stop-opacity="1" stop-color="rgb(60.064697%, 39.533997%, 13.453674%)" offset="0.394531"/><stop stop-opacity="1" stop-color="rgb(60.990906%, 40.357971%, 14.009094%)" offset="0.398437"/><stop stop-opacity="1" stop-color="rgb(61.917114%, 41.18042%, 14.564514%)" offset="0.402344"/><stop stop-opacity="1" stop-color="rgb(62.843323%, 42.004395%, 15.119934%)" offset="0.40625"/><stop stop-opacity="1" stop-color="rgb(63.769531%, 42.826843%, 15.675354%)" offset="0.410156"/><stop stop-opacity="1" stop-color="rgb(64.69574%, 43.650818%, 16.230774%)" offset="0.414062"/><stop stop-opacity="1" stop-color="rgb(65.621948%, 44.473267%, 16.786194%)" offset="0.417969"/><stop stop-opacity="1" stop-color="rgb(66.548157%, 45.297241%, 17.341614%)" offset="0.421875"/><stop stop-opacity="1" stop-color="rgb(67.472839%, 46.11969%, 17.897034%)" offset="0.425781"/><stop stop-opacity="1" stop-color="rgb(68.399048%, 46.943665%, 18.452454%)" offset="0.429688"/><stop stop-opacity="1" stop-color="rgb(69.325256%, 47.766113%, 19.006348%)" offset="0.433594"/><stop stop-opacity="1" stop-color="rgb(70.251465%, 48.590088%, 19.561768%)" offset="0.4375"/><stop stop-opacity="1" stop-color="rgb(71.177673%, 49.412537%, 20.117188%)" offset="0.441406"/><stop stop-opacity="1" stop-color="rgb(72.103882%, 50.236511%, 20.672607%)" offset="0.445312"/><stop stop-opacity="1" stop-color="rgb(73.03009%, 51.05896%, 21.228027%)" offset="0.449219"/><stop stop-opacity="1" stop-color="rgb(73.956299%, 51.882935%, 21.783447%)" offset="0.453125"/><stop stop-opacity="1" stop-color="rgb(74.882507%, 52.705383%, 22.338867%)" offset="0.457031"/><stop stop-opacity="1" stop-color="rgb(75.808716%, 53.529358%, 22.894287%)" offset="0.460938"/><stop stop-opacity="1" stop-color="rgb(76.734924%, 54.351807%, 23.449707%)" offset="0.464844"/><stop stop-opacity="1" stop-color="rgb(77.661133%, 55.175781%, 24.005127%)" offset="0.46875"/><stop stop-opacity="1" stop-color="rgb(78.585815%, 55.99823%, 24.560547%)" offset="0.472656"/><stop stop-opacity="1" stop-color="rgb(79.512024%, 56.822205%, 25.115967%)" offset="0.476562"/><stop stop-opacity="1" stop-color="rgb(80.438232%, 57.644653%, 25.671387%)" offset="0.480469"/><stop stop-opacity="1" stop-color="rgb(81.364441%, 58.468628%, 26.226807%)" offset="0.484375"/><stop stop-opacity="1" stop-color="rgb(82.290649%, 59.291077%, 26.782227%)" offset="0.488281"/><stop stop-opacity="1" stop-color="rgb(83.216858%, 60.115051%, 27.337646%)" offset="0.492188"/><stop stop-opacity="1" stop-color="rgb(84.143066%, 60.9375%, 27.893066%)" offset="0.496094"/><stop stop-opacity="1" stop-color="rgb(85.069275%, 61.761475%, 28.448486%)" offset="0.5"/><stop stop-opacity="1" stop-color="rgb(85.995483%, 62.585449%, 29.003906%)" offset="0.503906"/><stop stop-opacity="1" stop-color="rgb(86.921692%, 63.409424%, 29.559326%)" offset="0.507812"/><stop stop-opacity="1" stop-color="rgb(87.8479%, 64.231873%, 30.114746%)" offset="0.511719"/><stop stop-opacity="1" stop-color="rgb(88.774109%, 65.055847%, 30.670166%)" offset="0.515625"/><stop stop-opacity="1" stop-color="rgb(89.6698%, 65.85083%, 31.207275%)" offset="0.519531"/><stop stop-opacity="1" stop-color="rgb(90.565491%, 66.645813%, 31.745911%)" offset="0.523438"/><stop stop-opacity="1" stop-color="rgb(89.958191%, 66.049194%, 31.416321%)" offset="0.527344"/><stop stop-opacity="1" stop-color="rgb(89.350891%, 65.452576%, 31.088257%)" offset="0.53125"/><stop stop-opacity="1" stop-color="rgb(88.743591%, 64.854431%, 30.758667%)" offset="0.535156"/><stop stop-opacity="1" stop-color="rgb(88.136292%, 64.257812%, 30.430603%)" offset="0.539062"/><stop stop-opacity="1" stop-color="rgb(87.528992%, 63.661194%, 30.101013%)" offset="0.542969"/><stop stop-opacity="1" stop-color="rgb(86.923218%, 63.064575%, 29.772949%)" offset="0.546875"/><stop stop-opacity="1" stop-color="rgb(86.315918%, 62.467957%, 29.443359%)" offset="0.550781"/><stop stop-opacity="1" stop-color="rgb(85.708618%, 61.871338%, 29.11377%)" offset="0.554688"/><stop stop-opacity="1" stop-color="rgb(85.101318%, 61.273193%, 28.78418%)" offset="0.558594"/><stop stop-opacity="1" stop-color="rgb(84.494019%, 60.676575%, 28.456116%)" offset="0.5625"/><stop stop-opacity="1" stop-color="rgb(83.886719%, 60.079956%, 28.126526%)" offset="0.566406"/><stop stop-opacity="1" stop-color="rgb(83.280945%, 59.483337%, 27.798462%)" offset="0.570312"/><stop stop-opacity="1" stop-color="rgb(82.673645%, 58.886719%, 27.468872%)" offset="0.574219"/><stop stop-opacity="1" stop-color="rgb(82.066345%, 58.2901%, 27.140808%)" offset="0.578125"/><stop stop-opacity="1" stop-color="rgb(81.459045%, 57.693481%, 26.811218%)" offset="0.582031"/><stop stop-opacity="1" stop-color="rgb(80.851746%, 57.096863%, 26.483154%)" offset="0.585937"/><stop stop-opacity="1" stop-color="rgb(80.244446%, 56.498718%, 26.153564%)" offset="0.589844"/><stop stop-opacity="1" stop-color="rgb(79.638672%, 55.9021%, 25.823975%)" offset="0.59375"/><stop stop-opacity="1" stop-color="rgb(79.031372%, 55.305481%, 25.494385%)" offset="0.597656"/><stop stop-opacity="1" stop-color="rgb(78.424072%, 54.708862%, 25.166321%)" offset="0.601562"/><stop stop-opacity="1" stop-color="rgb(77.816772%, 54.112244%, 24.836731%)" offset="0.605469"/><stop stop-opacity="1" stop-color="rgb(77.209473%, 53.515625%, 24.508667%)" offset="0.609375"/><stop stop-opacity="1" stop-color="rgb(76.602173%, 52.91748%, 24.179077%)" offset="0.613281"/><stop stop-opacity="1" stop-color="rgb(75.994873%, 52.320862%, 23.851013%)" offset="0.617188"/><stop stop-opacity="1" stop-color="rgb(75.387573%, 51.724243%, 23.521423%)" offset="0.621094"/><stop stop-opacity="1" stop-color="rgb(74.781799%, 51.127625%, 23.193359%)" offset="0.625"/><stop stop-opacity="1" stop-color="rgb(74.1745%, 50.531006%, 22.86377%)" offset="0.628906"/><stop stop-opacity="1" stop-color="rgb(73.5672%, 49.934387%, 22.53418%)" offset="0.632812"/><stop stop-opacity="1" stop-color="rgb(72.9599%, 49.337769%, 22.20459%)" offset="0.636719"/><stop stop-opacity="1" stop-color="rgb(72.3526%, 48.74115%, 21.876526%)" offset="0.640625"/><stop stop-opacity="1" stop-color="rgb(71.7453%, 48.143005%, 21.546936%)" offset="0.644531"/><stop stop-opacity="1" stop-color="rgb(71.139526%, 47.546387%, 21.218872%)" offset="0.648437"/><stop stop-opacity="1" stop-color="rgb(70.532227%, 46.949768%, 20.889282%)" offset="0.652344"/><stop stop-opacity="1" stop-color="rgb(69.924927%, 46.353149%, 20.561218%)" offset="0.65625"/><stop stop-opacity="1" stop-color="rgb(69.317627%, 45.756531%, 20.231628%)" offset="0.660156"/><stop stop-opacity="1" stop-color="rgb(68.710327%, 45.159912%, 19.902039%)" offset="0.664062"/><stop stop-opacity="1" stop-color="rgb(68.103027%, 44.561768%, 19.572449%)" offset="0.667969"/><stop stop-opacity="1" stop-color="rgb(67.495728%, 43.965149%, 19.244385%)" offset="0.671875"/><stop stop-opacity="1" stop-color="rgb(67.472839%, 43.942261%, 19.232178%)" offset="0.6875"/><stop stop-opacity="1" stop-color="rgb(67.449951%, 43.919373%, 19.219971%)" offset="0.75"/><stop stop-opacity="1" stop-color="rgb(67.449951%, 43.919373%, 19.219971%)" offset="1"/></linearGradient><clipPath id="76e63f1a63"><rect x="0" width="283" y="0" height="199"/></clipPath><clipPath id="45e148df41"><path d="M 0 0.0507812 L 283 0.0507812 L 283 198.449219 L 0 198.449219 Z M 0 0.0507812 " clip-rule="nonzero"/></clipPath><clipPath id="ffda179f7b"><rect x="0" width="283" y="0" height="199"/></clipPath><clipPath id="20b9ad6bf2"><rect x="0" width="283" y="0" height="199"/></clipPath><mask id="60c1cf46cf"><g filter="url(#157867cba9)"><g transform="matrix(1, 0, 0, 1, 0, -0.000000000000008521)"><g clip-path="url(#20b9ad6bf2)"><g clip-path="url(#45e148df41)"><g transform="matrix(1, 0, 0, 1, 0, -0.000000000000008521)"><g clip-path="url(#ffda179f7b)"><g fill="#000000" fill-opacity="1"><g transform="translate(116.921475, 110.719573)"><g><path d="M 39.28125 -74.15625 L 10.15625 -74.15625 L 10.15625 -72.390625 L 20.3125 -72.390625 L 20.3125 -1.984375 C 20.3125 1.984375 19.757812 4.832031 18.65625 6.5625 C 17.550781 8.289062 15.597656 9.15625 12.796875 9.15625 C 11.328125 9.15625 9.96875 8.878906 8.71875 8.328125 C 7.46875 7.773438 6.472656 7.019531 5.734375 6.0625 C 7.503906 6.0625 8.828125 5.53125 9.703125 4.46875 C 10.585938 3.40625 11.03125 2.0625 11.03125 0.4375 C 11.03125 -0.8125 10.625 -1.929688 9.8125 -2.921875 C 9.007812 -3.921875 7.835938 -4.421875 6.296875 -4.421875 C 4.597656 -4.421875 3.34375 -3.882812 2.53125 -2.8125 C 1.726562 -1.75 1.328125 -0.367188 1.328125 1.328125 C 1.328125 2.359375 1.582031 3.441406 2.09375 4.578125 C 2.613281 5.722656 3.382812 6.769531 4.40625 7.71875 C 5.4375 8.675781 6.707031 9.484375 8.21875 10.140625 C 9.726562 10.804688 11.476562 11.140625 13.46875 11.140625 C 25.164062 11.140625 31.015625 5.363281 31.015625 -6.1875 L 31.015625 -72.390625 L 39.28125 -72.390625 Z M 39.28125 -74.15625 "/></g></g></g></g></g></g></g></g></g></mask><clipPath id="2c23610422"><path d="M 0 0.0507812 L 283 0.0507812 L 283 198.449219 L 0 198.449219 Z M 0 0.0507812 " clip-rule="nonzero"/></clipPath><clipPath id="10a9996c02"><rect x="0" width="283" y="0" height="199"/></clipPath><clipPath id="a52b8c24da"><rect x="0" width="283" y="0" height="199"/></clipPath><clipPath id="a3f928267d"><rect x="0" width="283" y="0" height="199"/></clipPath><clipPath id="93cb7788f3"><rect x="0" width="283" y="0" height="199"/></clipPath></defs><g clip-path="url(#5e9d5b2493)"><g transform="matrix(1, 0, 0, 1, 0, -0.000000000000008521)"><g clip-path="url(#93cb7788f3)"><g clip-path="url(#fdd18ad47c)"><g transform="matrix(1, 0, 0, 1, 0, -0.000000000000008521)"><g clip-path="url(#a3f928267d)"><g fill="#27502c" fill-opacity="1"><g transform="translate(43.980946, 110.719573)"><g><path d="M 2.421875 -1.765625 L 2.421875 0 L 26.921875 0 L 26.921875 -1.765625 L 13.90625 -1.765625 L 20.859375 -23.0625 L 43.046875 -23.0625 L 50.21875 -1.765625 L 38.84375 -1.765625 L 38.84375 0 L 71.1875 0 L 71.1875 -1.765625 L 61.578125 -1.765625 L 37.40625 -75.15625 L 36.09375 -75.15625 L 11.921875 -1.765625 Z M 31.890625 -56.390625 L 42.484375 -24.828125 L 21.515625 -24.828125 Z M 31.890625 -56.390625 "/></g></g></g><g fill="#27502c" fill-opacity="1"><g transform="translate(157.751056, 110.719573)"><g><path d="M 32.109375 -72.390625 L 32.109375 -74.15625 L 3.75 -74.15625 L 3.75 -72.390625 L 12.578125 -72.390625 L 12.578125 -1.765625 L 3.75 -1.765625 L 3.75 0 L 32.109375 0 L 32.109375 -1.765625 L 23.28125 -1.765625 L 23.28125 -72.390625 Z M 55.84375 -72.390625 L 24.0625 -40.609375 L 51.3125 -1.765625 L 41.71875 -1.765625 L 41.71875 0 L 72.953125 0 L 72.953125 -1.765625 L 64.125 -1.765625 L 32.890625 -46.578125 L 58.71875 -72.390625 L 68.09375 -72.390625 L 68.09375 -74.15625 L 46.34375 -74.15625 L 46.34375 -72.390625 Z M 55.84375 -72.390625 "/></g></g></g><g clip-path="url(#ccf2521dd6)"><g transform="matrix(1, 0, 0, 1, 0, -0.000000000000008521)"><g clip-path="url(#a52b8c24da)"><g clip-path="url(#92f8308aee)"><g mask="url(#60c1cf46cf)"><g transform="matrix(1, 0, 0, 1, 0, -0.000000000000008521)"><g clip-path="url(#10a9996c02)"><g clip-path="url(#2c23610422)"><path fill="url(#9bedabe77b)" d="M 0 0.0507812 L 0 198.449219 L 283 198.449219 L 283 0.0507812 Z M 0 0.0507812 " fill-rule="nonzero"/></g></g></g></g></g></g></g></g></g></g></g><g fill="#27502c" fill-opacity="1"><g transform="translate(9.723487, 146.106474)"><g><path d="M 6.53125 0.203125 C 4.875 0.203125 3.582031 -0.253906 2.65625 -1.171875 C 1.738281 -2.085938 1.28125 -3.398438 1.28125 -5.109375 L 1.265625 -11.609375 L 3.953125 -11.609375 L 3.96875 -5.203125 C 3.96875 -3.128906 4.828125 -2.09375 6.546875 -2.09375 C 7.390625 -2.09375 8.03125 -2.34375 8.46875 -2.84375 C 8.914062 -3.34375 9.140625 -4.128906 9.140625 -5.203125 L 9.125 -11.609375 L 11.765625 -11.625 L 11.78125 -5.125 C 11.78125 -3.414062 11.316406 -2.097656 10.390625 -1.171875 C 9.472656 -0.253906 8.1875 0.203125 6.53125 0.203125 Z M 6.53125 0.203125 "/></g></g></g><g fill="#27502c" fill-opacity="1"><g transform="translate(29.909335, 146.089534)"><g><path d="M 5.1875 0.203125 C 4.269531 0.203125 3.382812 0.078125 2.53125 -0.171875 C 1.675781 -0.421875 0.988281 -0.742188 0.46875 -1.140625 L 1.375 -3.171875 C 1.875 -2.804688 2.460938 -2.507812 3.140625 -2.28125 C 3.828125 -2.0625 4.515625 -1.953125 5.203125 -1.953125 C 5.960938 -1.953125 6.523438 -2.066406 6.890625 -2.296875 C 7.253906 -2.523438 7.4375 -2.828125 7.4375 -3.203125 C 7.4375 -3.472656 7.328125 -3.695312 7.109375 -3.875 C 6.898438 -4.0625 6.625 -4.210938 6.28125 -4.328125 C 5.945312 -4.441406 5.492188 -4.5625 4.921875 -4.6875 C 4.035156 -4.894531 3.3125 -5.101562 2.75 -5.3125 C 2.1875 -5.53125 1.703125 -5.867188 1.296875 -6.328125 C 0.898438 -6.796875 0.703125 -7.414062 0.703125 -8.1875 C 0.703125 -8.863281 0.878906 -9.472656 1.234375 -10.015625 C 1.597656 -10.566406 2.144531 -11 2.875 -11.3125 C 3.613281 -11.632812 4.515625 -11.796875 5.578125 -11.796875 C 6.316406 -11.796875 7.035156 -11.707031 7.734375 -11.53125 C 8.441406 -11.351562 9.0625 -11.109375 9.59375 -10.796875 L 8.78125 -8.734375 C 7.695312 -9.347656 6.617188 -9.65625 5.546875 -9.65625 C 4.796875 -9.65625 4.242188 -9.53125 3.890625 -9.28125 C 3.535156 -9.039062 3.359375 -8.722656 3.359375 -8.328125 C 3.359375 -7.921875 3.566406 -7.617188 3.984375 -7.421875 C 4.398438 -7.234375 5.035156 -7.046875 5.890625 -6.859375 C 6.773438 -6.648438 7.5 -6.441406 8.0625 -6.234375 C 8.625 -6.023438 9.101562 -5.695312 9.5 -5.25 C 9.90625 -4.800781 10.109375 -4.191406 10.109375 -3.421875 C 10.109375 -2.753906 9.921875 -2.144531 9.546875 -1.59375 C 9.179688 -1.039062 8.628906 -0.601562 7.890625 -0.28125 C 7.148438 0.0390625 6.25 0.203125 5.1875 0.203125 Z M 5.1875 0.203125 "/></g></g></g><g fill="#27502c" fill-opacity="1"><g transform="translate(47.610188, 146.074681)"><g><path d="M 1.578125 -11.609375 L 4.265625 -11.609375 L 4.28125 -2.1875 L 10.09375 -2.203125 L 10.09375 -0.015625 L 1.59375 0 Z M -0.234375 -5.046875 L 5.984375 -9.71875 L 6.953125 -8.421875 L 0.71875 -3.75 Z M -0.234375 -5.046875 "/></g></g></g><g fill="#27502c" fill-opacity="1"><g transform="translate(64.963139, 146.060119)"><g><path d="M 6.53125 0.203125 C 4.875 0.203125 3.582031 -0.253906 2.65625 -1.171875 C 1.738281 -2.085938 1.28125 -3.398438 1.28125 -5.109375 L 1.265625 -11.609375 L 3.953125 -11.609375 L 3.96875 -5.203125 C 3.96875 -3.128906 4.828125 -2.09375 6.546875 -2.09375 C 7.390625 -2.09375 8.03125 -2.34375 8.46875 -2.84375 C 8.914062 -3.34375 9.140625 -4.128906 9.140625 -5.203125 L 9.125 -11.609375 L 11.765625 -11.625 L 11.78125 -5.125 C 11.78125 -3.414062 11.316406 -2.097656 10.390625 -1.171875 C 9.472656 -0.253906 8.1875 0.203125 6.53125 0.203125 Z M 6.53125 0.203125 "/></g></g></g><g fill="#27502c" fill-opacity="1"><g transform="translate(85.148987, 146.04318)"><g><path d="M 9.21875 -5.984375 L 11.671875 -6 L 11.671875 -1.296875 C 11.035156 -0.816406 10.300781 -0.445312 9.46875 -0.1875 C 8.644531 0.0703125 7.816406 0.203125 6.984375 0.203125 C 5.773438 0.203125 4.6875 -0.0507812 3.71875 -0.5625 C 2.757812 -1.082031 2.003906 -1.796875 1.453125 -2.703125 C 0.910156 -3.617188 0.640625 -4.648438 0.640625 -5.796875 C 0.640625 -6.953125 0.910156 -7.984375 1.453125 -8.890625 C 1.992188 -9.804688 2.75 -10.519531 3.71875 -11.03125 C 4.695312 -11.539062 5.796875 -11.796875 7.015625 -11.796875 C 8.023438 -11.796875 8.945312 -11.628906 9.78125 -11.296875 C 10.613281 -10.960938 11.3125 -10.46875 11.875 -9.8125 L 10.15625 -8.21875 C 9.320312 -9.082031 8.316406 -9.515625 7.140625 -9.515625 C 6.398438 -9.515625 5.742188 -9.359375 5.171875 -9.046875 C 4.609375 -8.742188 4.164062 -8.304688 3.84375 -7.734375 C 3.519531 -7.171875 3.359375 -6.523438 3.359375 -5.796875 C 3.359375 -5.078125 3.519531 -4.4375 3.84375 -3.875 C 4.164062 -3.3125 4.609375 -2.875 5.171875 -2.5625 C 5.742188 -2.25 6.394531 -2.09375 7.125 -2.09375 C 7.90625 -2.09375 8.601562 -2.257812 9.21875 -2.59375 Z M 9.21875 -5.984375 "/></g></g></g><g fill="#27502c" fill-opacity="1"><g transform="translate(105.053199, 146.026477)"><g><path d="M 1.359375 -11.609375 L 4.046875 -11.609375 L 4.0625 0 L 1.375 0 Z M 1.359375 -11.609375 "/></g></g></g><g fill="#27502c" fill-opacity="1"><g transform="translate(117.618407, 146.015933)"><g/></g></g><g fill="#27502c" fill-opacity="1"><g transform="translate(129.438121, 146.006014)"><g><path d="M 5.609375 -4.5625 L 4.046875 -2.9375 L 4.046875 0 L 1.375 0 L 1.359375 -11.609375 L 4.03125 -11.609375 L 4.046875 -6.1875 L 9.171875 -11.609375 L 12.15625 -11.625 L 7.359375 -6.4375 L 12.453125 -0.015625 L 9.3125 0 Z M 5.609375 -4.5625 "/></g></g></g><g fill="#27502c" fill-opacity="1"><g transform="translate(148.828764, 145.989742)"><g><path d="M 5.1875 0.203125 C 4.269531 0.203125 3.382812 0.078125 2.53125 -0.171875 C 1.675781 -0.421875 0.988281 -0.742188 0.46875 -1.140625 L 1.375 -3.171875 C 1.875 -2.804688 2.460938 -2.507812 3.140625 -2.28125 C 3.828125 -2.0625 4.515625 -1.953125 5.203125 -1.953125 C 5.960938 -1.953125 6.523438 -2.066406 6.890625 -2.296875 C 7.253906 -2.523438 7.4375 -2.828125 7.4375 -3.203125 C 7.4375 -3.472656 7.328125 -3.695312 7.109375 -3.875 C 6.898438 -4.0625 6.625 -4.210938 6.28125 -4.328125 C 5.945312 -4.441406 5.492188 -4.5625 4.921875 -4.6875 C 4.035156 -4.894531 3.3125 -5.101562 2.75 -5.3125 C 2.1875 -5.53125 1.703125 -5.867188 1.296875 -6.328125 C 0.898438 -6.796875 0.703125 -7.414062 0.703125 -8.1875 C 0.703125 -8.863281 0.878906 -9.472656 1.234375 -10.015625 C 1.597656 -10.566406 2.144531 -11 2.875 -11.3125 C 3.613281 -11.632812 4.515625 -11.796875 5.578125 -11.796875 C 6.316406 -11.796875 7.035156 -11.707031 7.734375 -11.53125 C 8.441406 -11.351562 9.0625 -11.109375 9.59375 -10.796875 L 8.78125 -8.734375 C 7.695312 -9.347656 6.617188 -9.65625 5.546875 -9.65625 C 4.796875 -9.65625 4.242188 -9.53125 3.890625 -9.28125 C 3.535156 -9.039062 3.359375 -8.722656 3.359375 -8.328125 C 3.359375 -7.921875 3.566406 -7.617188 3.984375 -7.421875 C 4.398438 -7.234375 5.035156 -7.046875 5.890625 -6.859375 C 6.773438 -6.648438 7.5 -6.441406 8.0625 -6.234375 C 8.625 -6.023438 9.101562 -5.695312 9.5 -5.25 C 9.90625 -4.800781 10.109375 -4.191406 10.109375 -3.421875 C 10.109375 -2.753906 9.921875 -2.144531 9.546875 -1.59375 C 9.179688 -1.039062 8.628906 -0.601562 7.890625 -0.28125 C 7.148438 0.0390625 6.25 0.203125 5.1875 0.203125 Z M 5.1875 0.203125 "/></g></g></g><g fill="#27502c" fill-opacity="1"><g transform="translate(166.529617, 145.974889)"><g><path d="M 1.359375 -11.609375 L 4.046875 -11.609375 L 4.0625 0 L 1.375 0 Z M 1.359375 -11.609375 "/></g></g></g><g fill="#27502c" fill-opacity="1"><g transform="translate(179.094825, 145.964345)"><g><path d="M 10.359375 -2.171875 L 10.359375 -0.015625 L 1.375 0 L 1.359375 -11.609375 L 10.125 -11.625 L 10.140625 -9.46875 L 4.046875 -9.453125 L 4.046875 -6.921875 L 9.4375 -6.921875 L 9.4375 -4.84375 L 4.046875 -4.84375 L 4.046875 -2.15625 Z M 9.0625 3.84375 C 8.351562 3.84375 7.796875 3.671875 7.390625 3.328125 C 6.984375 2.992188 6.78125 2.546875 6.78125 1.984375 C 6.78125 1.441406 6.988281 0.9375 7.40625 0.46875 C 7.832031 0.0078125 8.472656 -0.375 9.328125 -0.6875 L 10.359375 -0.015625 C 9.660156 0.304688 9.160156 0.609375 8.859375 0.890625 C 8.566406 1.171875 8.421875 1.46875 8.421875 1.78125 C 8.421875 2.007812 8.503906 2.191406 8.671875 2.328125 C 8.847656 2.460938 9.078125 2.53125 9.359375 2.53125 C 9.734375 2.519531 10.070312 2.429688 10.375 2.265625 L 10.734375 3.453125 C 10.523438 3.554688 10.269531 3.644531 9.96875 3.71875 C 9.675781 3.789062 9.375 3.832031 9.0625 3.84375 Z M 9.0625 3.84375 "/></g></g></g><g fill="#27502c" fill-opacity="1"><g transform="translate(197.342382, 145.949032)"><g><path d="M 9.21875 -5.984375 L 11.671875 -6 L 11.671875 -1.296875 C 11.035156 -0.816406 10.300781 -0.445312 9.46875 -0.1875 C 8.644531 0.0703125 7.816406 0.203125 6.984375 0.203125 C 5.773438 0.203125 4.6875 -0.0507812 3.71875 -0.5625 C 2.757812 -1.082031 2.003906 -1.796875 1.453125 -2.703125 C 0.910156 -3.617188 0.640625 -4.648438 0.640625 -5.796875 C 0.640625 -6.953125 0.910156 -7.984375 1.453125 -8.890625 C 1.992188 -9.804688 2.75 -10.519531 3.71875 -11.03125 C 4.695312 -11.539062 5.796875 -11.796875 7.015625 -11.796875 C 8.023438 -11.796875 8.945312 -11.628906 9.78125 -11.296875 C 10.613281 -10.960938 11.3125 -10.46875 11.875 -9.8125 L 10.15625 -8.21875 C 9.320312 -9.082031 8.316406 -9.515625 7.140625 -9.515625 C 6.398438 -9.515625 5.742188 -9.359375 5.171875 -9.046875 C 4.609375 -8.742188 4.164062 -8.304688 3.84375 -7.734375 C 3.519531 -7.171875 3.359375 -6.523438 3.359375 -5.796875 C 3.359375 -5.078125 3.519531 -4.4375 3.84375 -3.875 C 4.164062 -3.3125 4.609375 -2.875 5.171875 -2.5625 C 5.742188 -2.25 6.394531 -2.09375 7.125 -2.09375 C 7.90625 -2.09375 8.601562 -2.257812 9.21875 -2.59375 Z M 9.21875 -5.984375 "/></g></g></g><g fill="#27502c" fill-opacity="1"><g transform="translate(217.246595, 145.932329)"><g><path d="M 7 0.203125 C 5.789062 0.203125 4.703125 -0.0546875 3.734375 -0.578125 C 2.765625 -1.097656 2.003906 -1.8125 1.453125 -2.71875 C 0.910156 -3.632812 0.640625 -4.660156 0.640625 -5.796875 C 0.640625 -6.941406 0.910156 -7.96875 1.453125 -8.875 C 1.992188 -9.789062 2.75 -10.503906 3.71875 -11.015625 C 4.6875 -11.535156 5.773438 -11.796875 6.984375 -11.796875 C 8.179688 -11.796875 9.257812 -11.539062 10.21875 -11.03125 C 11.1875 -10.519531 11.945312 -9.804688 12.5 -8.890625 C 13.0625 -7.984375 13.34375 -6.957031 13.34375 -5.8125 C 13.34375 -4.675781 13.066406 -3.648438 12.515625 -2.734375 C 11.960938 -1.828125 11.203125 -1.109375 10.234375 -0.578125 C 9.273438 -0.0546875 8.195312 0.203125 7 0.203125 Z M 7 -2.09375 C 7.6875 -2.09375 8.304688 -2.25 8.859375 -2.5625 C 9.410156 -2.882812 9.84375 -3.328125 10.15625 -3.890625 C 10.46875 -4.453125 10.625 -5.09375 10.625 -5.8125 C 10.625 -6.53125 10.46875 -7.171875 10.15625 -7.734375 C 9.84375 -8.304688 9.40625 -8.742188 8.84375 -9.046875 C 8.289062 -9.359375 7.671875 -9.515625 6.984375 -9.515625 C 6.296875 -9.515625 5.675781 -9.359375 5.125 -9.046875 C 4.582031 -8.734375 4.148438 -8.289062 3.828125 -7.71875 C 3.515625 -7.15625 3.359375 -6.515625 3.359375 -5.796875 C 3.359375 -5.078125 3.515625 -4.4375 3.828125 -3.875 C 4.148438 -3.3125 4.585938 -2.875 5.140625 -2.5625 C 5.691406 -2.25 6.3125 -2.09375 7 -2.09375 Z M 7 -2.09375 "/></g></g></g><g fill="#27502c" fill-opacity="1"><g transform="translate(238.360171, 145.914612)"><g><path d="M 18.90625 -11.625 L 15.125 -0.015625 L 12.234375 -0.015625 L 9.6875 -7.875 L 7.046875 0 L 4.171875 0 L 0.34375 -11.609375 L 3.140625 -11.609375 L 5.765625 -3.453125 L 8.484375 -11.609375 L 10.96875 -11.625 L 13.640625 -3.390625 L 16.328125 -11.625 Z M 18.90625 -11.625 "/></g></g></g><g fill="#27502c" fill-opacity="1"><g transform="translate(264.758483, 145.892459)"><g><path d="M 10.359375 -2.171875 L 10.359375 -0.015625 L 1.375 0 L 1.359375 -11.609375 L 10.125 -11.625 L 10.140625 -9.46875 L 4.046875 -9.453125 L 4.046875 -6.921875 L 9.4375 -6.921875 L 9.4375 -4.84375 L 4.046875 -4.84375 L 4.046875 -2.15625 Z M 10.359375 -2.171875 "/></g></g></g><path stroke-linecap="butt" transform="matrix(-0.748773, 0, 0, -0.748773, 276.734128, 154.51999)" fill="none" stroke-linejoin="miter" d="M -0.000329334 1.002251 L 361.22597 1.002251 " stroke="#be9311" stroke-width="2" stroke-opacity="1" stroke-miterlimit="4"/></g></g></g></svg>